<svg width="100%" viewBox="0 0 680 980" xmlns="http://www.w3.org/2000/svg" font-family="'Courier New', monospace">
<defs>
<style>
.bg{fill:#0d1117}
.card{fill:#161b22;stroke:#30363d;stroke-width:0.5}
.sec-label{font-family:'Courier New',monospace;font-size:10px;fill:#8b949e;letter-spacing:0.12em}
.divider{stroke:#21262d;stroke-width:0.5}
.ascii{font-family:'Courier New',monospace;font-size:9px;fill:#58a6ff;letter-spacing:0}
.tagline{font-family:'Courier New',monospace;font-size:11px;fill:#8b949e}
.kw{fill:#ff7b72}
.cl{fill:#79c0ff}
.va{fill:#cae8ff}
.eq{fill:#8b949e}
.st{fill:#a5d6ff}
.fn{fill:#d2a8ff}
.code-txt{font-family:'Courier New',monospace;font-size:11px}
.badge-bg{fill:#21262d;stroke:#30363d;stroke-width:0.5}
.badge-txt{font-family:'Courier New',monospace;font-size:9.5px;fill:#e6edf3}
.stat-num{font-family:'Courier New',monospace;font-size:22px;fill:#e6edf3;font-weight:bold}
.stat-lbl{font-family:'Courier New',monospace;font-size:8.5px;fill:#8b949e;letter-spacing:0.08em}
.stat-sub{font-family:'Courier New',monospace;font-size:8px;fill:#484f58}
.now-txt{font-family:'Courier New',monospace;font-size:10px;fill:#8b949e}
.quote-txt{font-family:'Courier New',monospace;font-size:10px;fill:#484f58;font-style:italic}
.dot-r{fill:#ff5f57}
.dot-y{fill:#febc2e}
.dot-g{fill:#28c840}
</style>
</defs>

<rect width="680" height="980" rx="12" class="bg"/>

<text x="340" y="52" text-anchor="middle" class="ascii"> █████╗ ██████╗  █████╗ ███████╗██╗   ██╗</text>
<text x="340" y="64" text-anchor="middle" class="ascii">██╔══██╗██╔══██╗██╔══██╗██╔════╝╚██╗ ██╔╝</text>
<text x="340" y="76" text-anchor="middle" class="ascii">███████║██████╔╝███████║███████╗ ╚████╔╝ </text>
<text x="340" y="88" text-anchor="middle" class="ascii">██╔══██║██╔══██╗██╔══██║╚════██║  ╚██╔╝  </text>
<text x="340" y="100" text-anchor="middle" class="ascii">██║  ██║██████╔╝██║  ██║███████║   ██║   </text>
<text x="340" y="112" text-anchor="middle" class="ascii">╚═╝  ╚═╝╚═════╝ ╚═╝  ╚═╝╚══════╝   ╚═╝  </text>

<text x="340" y="136" text-anchor="middle" class="tagline">Biomedical Engineer · ML · Computer Vision · Future MLOps</text>

<rect x="96" y="148" width="110" height="20" rx="10" class="badge-bg"/>
<text x="151" y="162" text-anchor="middle" class="badge-txt" fill="#58a6ff">Cairo University</text>
<rect x="216" y="148" width="76" height="20" rx="10" class="badge-bg"/>
<text x="254" y="162" text-anchor="middle" class="badge-txt" fill="#3fb950">LinkedIn</text>
<rect x="302" y="148" width="64" height="20" rx="10" class="badge-bg"/>
<text x="334" y="162" text-anchor="middle" class="badge-txt" fill="#20BEFF">Kaggle</text>
<rect x="376" y="148" width="110" height="20" rx="10" class="badge-bg"/>
<text x="431" y="162" text-anchor="middle" class="badge-txt" fill="#8b949e">Cairo, Egypt</text>

<line x1="40" y1="182" x2="640" y2="182" class="divider"/>

<text x="40" y="202" class="sec-label">WHOAMI</text>
<line x1="110" y1="198" x2="640" y2="198" class="divider"/>

<rect x="40" y="212" width="600" height="226" rx="8" class="card"/>
<circle cx="62" cy="227" r="5" class="dot-r"/>
<circle cx="79" cy="227" r="5" class="dot-y"/>
<circle cx="96" cy="227" r="5" class="dot-g"/>
<text x="598" y="231" text-anchor="end" class="badge-txt">abasy.py</text>
<line x1="40" y1="238" x2="640" y2="238" class="divider"/>

<text x="60" y="258" class="code-txt"><tspan class="kw">class</tspan><tspan fill="#e6edf3"> </tspan><tspan class="cl">Abasy</tspan><tspan class="eq">:</tspan></text>
<text x="60" y="278" class="code-txt"><tspan dx="20" class="va">name</tspan><tspan fill="#e6edf3">        </tspan><tspan class="eq">=</tspan><tspan fill="#e6edf3"> </tspan><tspan class="st">"Mohamed Jameel Alabasy"</tspan></text>
<text x="60" y="296" class="code-txt"><tspan dx="20" class="va">role</tspan><tspan fill="#e6edf3">        </tspan><tspan class="eq">=</tspan><tspan fill="#e6edf3"> </tspan><tspan class="st">"Biomedical Engineer · Cairo University"</tspan></text>
<text x="60" y="314" class="code-txt"><tspan dx="20" class="va">location</tspan><tspan fill="#e6edf3">    </tspan><tspan class="eq">=</tspan><tspan fill="#e6edf3"> </tspan><tspan class="st">"Cairo, Egypt"</tspan></text>
<text x="60" y="338" class="code-txt"><tspan dx="20" class="va">passions</tspan><tspan fill="#e6edf3">    </tspan><tspan class="eq">=</tspan><tspan fill="#e6edf3"> [</tspan><tspan class="st">"ML"</tspan><tspan fill="#e6edf3">, </tspan><tspan class="st">"Deep Learning"</tspan><tspan fill="#e6edf3">, </tspan><tspan class="st">"Computer Vision"</tspan><tspan fill="#e6edf3">, </tspan><tspan class="st">"Biomedical Data"</tspan><tspan fill="#e6edf3">]</tspan></text>
<text x="60" y="358" class="code-txt"><tspan dx="20" class="va">currently</tspan><tspan fill="#e6edf3">   </tspan><tspan class="eq">=</tspan><tspan fill="#e6edf3"> </tspan><tspan class="st">"notebooks → production (DevOps + MLOps)"</tspan></text>
<text x="60" y="384" class="code-txt"><tspan dx="20" class="kw">def </tspan><tspan class="fn">goal</tspan><tspan class="eq">(</tspan><tspan class="va">self</tspan><tspan class="eq">)</tspan><tspan fill="#e6edf3">: </tspan><tspan class="kw">return </tspan><tspan class="st">"ship models that actually run in production"</tspan></text>

<line x1="40" y1="416" x2="640" y2="416" class="divider"/>

<text x="40" y="436" class="sec-label">STACK</text>
<line x1="82" y1="432" x2="640" y2="432" class="divider"/>

<text x="40" y="455" class="stat-lbl">LANGUAGES</text>
<rect x="40" y="462" width="70" height="28" rx="5" class="badge-bg"/>
<text x="75" y="480" text-anchor="middle" class="badge-txt">Python</text>
<rect x="118" y="462" width="56" height="28" rx="5" class="badge-bg"/>
<text x="146" y="480" text-anchor="middle" class="badge-txt">SQL</text>
<rect x="182" y="462" width="62" height="28" rx="5" class="badge-bg"/>
<text x="213" y="480" text-anchor="middle" class="badge-txt">HTML5</text>
<rect x="252" y="462" width="86" height="28" rx="5" class="badge-bg"/>
<text x="295" y="480" text-anchor="middle" class="badge-txt">JavaScript</text>

<text x="40" y="508" class="stat-lbl">ML · DL · CV</text>
<rect x="40" y="515" width="64" height="28" rx="5" fill="#1a0a00" stroke="#ff7b72" stroke-width="0.5"/>
<text x="72" y="533" text-anchor="middle" class="badge-txt" fill="#ff7b72">PyTorch</text>
<rect x="112" y="515" width="80" height="28" rx="5" fill="#1a0e00" stroke="#e3b341" stroke-width="0.5"/>
<text x="152" y="533" text-anchor="middle" class="badge-txt" fill="#e3b341">TensorFlow</text>
<rect x="200" y="515" width="66" height="28" rx="5" fill="#001a0e" stroke="#3fb950" stroke-width="0.5"/>
<text x="233" y="533" text-anchor="middle" class="badge-txt" fill="#3fb950">OpenCV</text>
<rect x="274" y="515" width="80" height="28" rx="5" fill="#1a0e00" stroke="#e3b341" stroke-width="0.5"/>
<text x="314" y="533" text-anchor="middle" class="badge-txt" fill="#e3b341">scikit-learn</text>
<rect x="362" y="515" width="76" height="28" rx="5" fill="#001a0a" stroke="#3fb950" stroke-width="0.5"/>
<text x="400" y="533" text-anchor="middle" class="badge-txt" fill="#3fb950">YOLOv8/11</text>
<rect x="446" y="515" width="56" height="28" rx="5" fill="#1a0000" stroke="#ff7b72" stroke-width="0.5"/>
<text x="474" y="533" text-anchor="middle" class="badge-txt" fill="#ff7b72">Keras</text>

<text x="40" y="561" class="stat-lbl">DATA &amp; VISUALIZATION</text>
<rect x="40" y="568" width="60" height="28" rx="5" fill="#00001a" stroke="#58a6ff" stroke-width="0.5"/>
<text x="70" y="586" text-anchor="middle" class="badge-txt" fill="#58a6ff">Pandas</text>
<rect x="108" y="568" width="60" height="28" rx="5" fill="#00001a" stroke="#58a6ff" stroke-width="0.5"/>
<text x="138" y="586" text-anchor="middle" class="badge-txt" fill="#58a6ff">NumPy</text>
<rect x="176" y="568" width="80" height="28" rx="5" fill="#00001a" stroke="#58a6ff" stroke-width="0.5"/>
<text x="216" y="586" text-anchor="middle" class="badge-txt" fill="#58a6ff">Matplotlib</text>
<rect x="264" y="568" width="76" height="28" rx="5" fill="#1a0000" stroke="#ff7b72" stroke-width="0.5"/>
<text x="302" y="586" text-anchor="middle" class="badge-txt" fill="#ff7b72">Streamlit</text>
<rect x="348" y="568" width="62" height="28" rx="5" fill="#1a0e00" stroke="#e3b341" stroke-width="0.5"/>
<text x="379" y="586" text-anchor="middle" class="badge-txt" fill="#e3b341">Jupyter</text>

<text x="40" y="614" class="stat-lbl">DEVOPS &amp; MLOPS (LEARNING)</text>
<rect x="40" y="621" width="62" height="28" rx="5" fill="#00001a" stroke="#58a6ff" stroke-width="0.5"/>
<text x="71" y="639" text-anchor="middle" class="badge-txt" fill="#58a6ff">Docker</text>
<rect x="110" y="621" width="46" height="28" rx="5" fill="#1a0a00" stroke="#ff7b72" stroke-width="0.5"/>
<text x="133" y="639" text-anchor="middle" class="badge-txt" fill="#ff7b72">Git</text>
<rect x="164" y="621" width="54" height="28" rx="5" fill="#1a1400" stroke="#e3b341" stroke-width="0.5"/>
<text x="191" y="639" text-anchor="middle" class="badge-txt" fill="#e3b341">Linux</text>
<rect x="226" y="621" width="102" height="28" rx="5" fill="#00001a" stroke="#58a6ff" stroke-width="0.5"/>
<text x="277" y="639" text-anchor="middle" class="badge-txt" fill="#58a6ff">GitHub Actions</text>

<line x1="40" y1="664" x2="640" y2="664" class="divider"/>

<text x="40" y="684" class="sec-label">BY THE NUMBERS</text>
<line x1="160" y1="680" x2="640" y2="680" class="divider"/>

<rect x="40" y="692" width="132" height="64" rx="6" fill="#161b22" stroke="#21262d" stroke-width="0.5"/>
<text x="106" y="726" text-anchor="middle" class="stat-num">162</text>
<text x="106" y="742" text-anchor="middle" class="stat-lbl">CONTRIBUTIONS</text>
<text x="106" y="752" text-anchor="middle" class="stat-sub">since Jun 2024</text>

<rect x="182" y="692" width="132" height="64" rx="6" fill="#161b22" stroke="#21262d" stroke-width="0.5"/>
<text x="248" y="726" text-anchor="middle" class="stat-num">95</text>
<text x="248" y="742" text-anchor="middle" class="stat-lbl">COMMITS</text>
<text x="248" y="752" text-anchor="middle" class="stat-sub">last 12 months</text>

<rect x="324" y="692" width="132" height="64" rx="6" fill="#161b22" stroke="#21262d" stroke-width="0.5"/>
<text x="390" y="726" text-anchor="middle" class="stat-num">10</text>
<text x="390" y="742" text-anchor="middle" class="stat-lbl">PULL REQUESTS</text>
<text x="390" y="752" text-anchor="middle" class="stat-sub">merged</text>

<rect x="466" y="692" width="132" height="64" rx="6" fill="#161b22" stroke="#21262d" stroke-width="0.5"/>
<text x="532" y="726" text-anchor="middle" class="stat-num">6</text>
<text x="532" y="742" text-anchor="middle" class="stat-lbl">STARS EARNED</text>
<text x="532" y="752" text-anchor="middle" class="stat-sub">on repos</text>

<line x1="40" y1="772" x2="640" y2="772" class="divider"/>

<text x="40" y="792" class="sec-label">RIGHT NOW</text>
<line x1="112" y1="788" x2="640" y2="788" class="divider"/>

<rect x="40" y="802" width="3" height="28" rx="1" fill="#58a6ff"/>
<text x="52" y="812" class="now-txt">Converting notebooks → proper Python packages with clean project structure</text>

<rect x="40" y="840" width="3" height="28" rx="1" fill="#3fb950"/>
<text x="52" y="850" class="now-txt">Learning Docker &amp; CI/CD pipelines for ML model deployment</text>

<rect x="40" y="878" width="3" height="28" rx="1" fill="#e3b341"/>
<text x="52" y="888" class="now-txt">Building toward full end-to-end MLOps — train, deploy, monitor</text>

<line x1="40" y1="918" x2="640" y2="918" class="divider"/>

<rect x="40" y="928" width="3" height="34" fill="#30363d"/>
<text x="54" y="942" class="quote-txt">"It's not about having the best model.</text>
<text x="54" y="958" class="quote-txt">It's about shipping the right one."</text>
</svg>
